HIERARCHY
ROOT Hips
{
	OFFSET 0.00000 0.00000 0.00000
	CHANNELS 6 Xposition Yposition Zposition Zrotation Yrotation Xrotation 
	JOINT LHipJoint
	{
		OFFSET 0 0 0
		CHANNELS 3 Zrotation Yrotation Xrotation
		JOINT LeftUpLeg
		{
			OFFSET 1.74857 -1.85566 0.69197
			CHANNELS 3 Zrotation Yrotation Xrotation
			JOINT LeftLeg
			{
				OFFSET 2.40003 -6.59403 0.00000
				CHANNELS 3 Zrotation Yrotation Xrotation
				JOINT LeftFoot
				{
					OFFSET 2.82169 -7.75254 0.00000
					CHANNELS 3 Zrotation Yrotation Xrotation
					JOINT LeftToeBase
					{
						OFFSET 0.16466 -0.45240 2.26890
						CHANNELS 3 Zrotation Yrotation Xrotation
						End Site
						{
							OFFSET 0.00000 -0.00000 1.16486
						}
					}
				}
			}
		}
	}
	JOINT RHipJoint
	{
		OFFSET 0 0 0
		CHANNELS 3 Zrotation Yrotation Xrotation
		JOINT RightUpLeg
		{
			OFFSET -1.64169 -1.85566 0.69197
			CHANNELS 3 Zrotation Yrotation Xrotation
			JOINT RightLeg
			{
				OFFSET -2.41814 -6.64379 0.00000
				CHANNELS 3 Zrotation Yrotation Xrotation
				JOINT RightFoot
				{
					OFFSET -2.80588 -7.70911 0.00000
					CHANNELS 3 Zrotation Yrotation Xrotation
					JOINT RightToeBase
					{
						OFFSET -0.19098 -0.52472 2.25401
						CHANNELS 3 Zrotation Yrotation Xrotation
						End Site
						{
							OFFSET -0.00000 -0.00000 1.16333
						}
					}
				}
			}
		}
	}
	JOINT LowerBack
	{
		OFFSET 0 0 0
		CHANNELS 3 Zrotation Yrotation Xrotation
		JOINT Spine
		{
			OFFSET -0.02828 2.14690 -0.11061
			CHANNELS 3 Zrotation Yrotation Xrotation
			JOINT Spine1
			{
				OFFSET -0.00167 2.15299 0.00759
				CHANNELS 3 Zrotation Yrotation Xrotation
				JOINT Neck
				{
					OFFSET 0 0 0
					CHANNELS 3 Zrotation Yrotation Xrotation
					JOINT Neck1
					{
						OFFSET -0.09296 1.90118 0.07197
						CHANNELS 3 Zrotation Yrotation Xrotation
						JOINT Head
						{
							OFFSET 0.08490 1.89526 -0.24604
							CHANNELS 3 Zrotation Yrotation Xrotation
							End Site
							{
								OFFSET 0.03186 1.92109 -0.09483
							}
						}
					}
				}
				JOINT LeftShoulder
				{
					OFFSET 0 0 0
					CHANNELS 3 Zrotation Yrotation Xrotation
					JOINT LeftArm
					{
						OFFSET 3.21569 1.44644 -0.03720
						CHANNELS 3 Zrotation Yrotation Xrotation
						JOINT LeftForeArm
						{
							OFFSET 5.47651 -0.00000 -0.00000
							CHANNELS 3 Zrotation Yrotation Xrotation
							JOINT LeftHand
							{
								OFFSET 3.09058 -0.00000 -0.00000
								CHANNELS 3 Zrotation Yrotation Xrotation
								JOINT LeftFingerBase
								{
									OFFSET 0 0 0
									CHANNELS 3 Zrotation Yrotation Xrotation
									JOINT LeftHandIndex1
									{
										OFFSET 0.77161 -0.00000 -0.00000
										CHANNELS 3 Zrotation Yrotation Xrotation
										End Site
										{
											OFFSET 0.62209 -0.00000 -0.00000
										}
									}
								}
								JOINT LThumb
								{
									OFFSET 0 0 0
									CHANNELS 3 Zrotation Yrotation Xrotation
									End Site
									{
										OFFSET 0.63159 -0.00000 0.63159
									}
								}
							}
						}
					}
				}
				JOINT RightShoulder
				{
					OFFSET 0 0 0
					CHANNELS 3 Zrotation Yrotation Xrotation
					JOINT RightArm
					{
						OFFSET -3.38693 1.28904 -0.07093
						CHANNELS 3 Zrotation Yrotation Xrotation
						JOINT RightForeArm
						{
							OFFSET -5.14182 -0.00000 -0.00000
							CHANNELS 3 Zrotation Yrotation Xrotation
							JOINT RightHand
							{
								OFFSET -3.35565 -0.00000 -0.00000
								CHANNELS 3 Zrotation Yrotation Xrotation
								JOINT RightFingerBase
								{
									OFFSET 0 0 0
									CHANNELS 3 Zrotation Yrotation Xrotation
									JOINT RightHandIndex1
									{
										OFFSET -0.80104 -0.00000 -0.00000
										CHANNELS 3 Zrotation Yrotation Xrotation
										End Site
										{
											OFFSET -0.64582 -0.00000 -0.00000
										}
									}
								}
								JOINT RThumb
								{
									OFFSET 0 0 0
									CHANNELS 3 Zrotation Yrotation Xrotation
									End Site
									{
										OFFSET -0.65568 -0.00000 0.65568
									}
								}
							}
						}
					}
				}
			}
		}
	}
}
MOTION
Frames: 12
Frame Time: .0083333
-0.6686 18.1588 -0.1601 0 0 0 0 0 0 -21 0 0 0 0 0 0 0 0 0 0 0 0 0 0 21 0 0 0 0 0 0 0 0 0 0 0 0 0 0 0 0 0 0 0 0 0 0 -16 0 0 21 0 0 11 0 0 0 -8 0 0 0 0 0 0 0 0 0 0 0 0 0 0 0 0 0 0 0 0 8 0 0 0 0 0 0 0 0 0 0 0 0 0 0 0 0 0
-0.6686 18.1588 -0.1601 1.2460 -5.6087 1.7149 0.0000 0.0000 0.0000 -18.0807 -2.7409 0.2225 0.4064 4.0927 11.3375 0.0120 14.1371 -20.2187 0.7249 -5.4402 -15.1685 0.0000 0.0000 0.0000 20.3265 4.7727 -4.3109 -0.9112 -6.0825 17.0240 0.0256 -13.4769 -18.8492 -0.1934 2.8323 -7.8121 -0.6783 2.5446 2.4248 -0.3834 3.3942 4.0067 -0.0145 1.6817 2.7414 -5.8112 -6.3536 -5.4273 4.8640 -9.0278 21.3289 1.7865 -4.3232 7.9565 0.0000 0.0000 0.0000 -74.8701 14.9519 58.0099 57.1336 -55.4964 -31.9672 -0.0000 0.0000 -37.0360 9.7543 36.9250 5.8965 -7.1250 0.0000 -0.0000 -30.9892 64.7199 -15.4798 0.0000 0.0000 0.0000 79.2119 -15.4071 50.1237 -47.2187 51.8102 -23.9702 0.0000 -0.0000 -42.2270 -8.0438 2.2195 -0.3136 7.1250 -0.0000 -0.0000 14.1797 -27.6388 6.1596
-0.6682 18.1592 -0.1567 1.2778 -5.6293 1.7015 0.0000 0.0000 0.0000 -18.1201 -2.7200 0.3038 0.3985 4.0533 11.2266 0.0162 14.1414 -20.2712 0.7024 -5.3568 -14.9289 0.0000 0.0000 0.0000 20.2963 4.7943 -4.2968 -0.9150 -6.0949 17.0601 0.0259 -13.4759 -18.8441 -0.2054 2.9184 -8.0517 -0.7119 2.5583 2.4538 -0.3922 3.4120 3.9996 -0.0066 1.6899 2.7163 -5.6276 -6.3630 -5.3372 4.6971 -9.0261 21.1889 1.7064 -4.3260 7.8767 0.0000 -0.0000 0.0000 -74.8648 14.9963 57.9983 57.2178 -55.5218 -32.0366 -0.0000 0.0000 -37.0386 9.7137 36.9269 5.8719 -7.1250 0.0000 -0.0000 -31.0344 64.7103 -15.4977 0.0000 -0.0000 0.0000 79.2341 -15.4674 50.0870 -47.2854 51.8402 -24.0226 0.0000 -0.0000 -42.2200 -8.0586 2.2455 -0.3178 7.1250 -0.0000 -0.0000 14.1654 -27.6134 6.1618
-0.6681 18.1591 -0.1536 1.3080 -5.6475 1.6878 0.0000 0.0000 0.0000 -18.1582 -2.7082 0.3682 0.3937 4.0289 11.1580 0.0200 14.1409 -20.3131 0.6816 -5.2787 -14.7051 0.0000 0.0000 0.0000 20.2646 4.8137 -4.2809 -0.9173 -6.1023 17.0816 0.0246 -13.4875 -18.8762 -0.2038 2.9066 -8.0188 -0.7406 2.5561 2.4818 -0.3944 3.4085 4.0012 0.0059 1.6875 2.7008 -5.4649 -6.3549 -5.2804 4.5157 -8.9938 21.0658 1.6268 -4.3163 7.8073 -0.0000 -0.0000 0.0000 -74.9101 15.0301 57.9204 57.2515 -55.5319 -32.0644 -0.0000 0.0000 -37.0262 9.7629 36.8289 5.8886 -7.1250 0.0000 -0.0000 -30.8612 64.6420 -15.3548 -0.0000 -0.0000 0.0000 79.2262 -15.5111 50.0844 -47.3681 51.8773 -24.0877 0.0000 -0.0000 -42.2134 -8.0432 2.1391 -0.3022 7.1250 -0.0000 -0.0000 14.1903 -27.7174 6.1372
-0.6671 18.1594 -0.1494 1.3330 -5.6484 1.6957 0.0000 0.0000 0.0000 -18.1926 -2.6685 0.3863 0.3904 4.0121 11.1106 0.0134 14.1695 -20.2797 0.6943 -5.3265 -14.8423 0.0000 0.0000 0.0000 20.2281 4.8274 -4.2822 -0.9196 -6.1099 17.1036 0.0154 -13.4575 -18.9447 -0.1887 2.7978 -7.7163 -0.7616 2.5503 2.4599 -0.4023 3.4011 4.0010 0.0105 1.6833 2.7121 -5.4390 -6.3494 -5.3064 4.4811 -8.9822 21.0866 1.6114 -4.3112 7.8153 0.0000 0.0000 0.0000 -74.9301 15.0317 57.8841 57.1782 -55.5099 -32.0040 -0.0000 0.0000 -37.0065 9.7840 36.8849 5.9091 -7.1250 0.0000 -0.0000 -30.9083 64.6946 -15.4178 0.0000 0.0000 0.0000 79.2638 -15.5373 50.0601 -47.4071 51.8947 -24.1184 0.0000 -0.0000 -42.1401 -8.0985 2.0531 -0.2921 7.1250 -0.0000 -0.0000 14.1595 -27.8020 6.0939
-0.6669 18.1588 -0.1456 1.3595 -5.6575 1.6950 0.0000 0.0000 0.0000 -18.2243 -2.6346 0.3983 0.3899 4.0096 11.1038 0.0190 14.1348 -20.2931 0.7035 -5.3612 -14.9416 0.0000 0.0000 0.0000 20.1954 4.8571 -4.2694 -0.9215 -6.1160 17.1214 0.0173 -13.4849 -18.9603 -0.1921 2.8226 -7.7853 -0.7769 2.5579 2.4741 -0.4155 3.4111 3.9805 0.0041 1.6882 2.6828 -5.4129 -6.3370 -5.2835 4.4579 -8.9652 21.0989 1.6019 -4.3034 7.8120 -0.0000 -0.0000 0.0000 -74.9227 15.0655 57.8762 57.1311 -55.4957 -31.9652 -0.0000 0.0000 -36.9962 9.8938 37.3909 6.0459 -7.1250 0.0000 -0.0000 -31.4305 65.1461 -16.0282 -0.0000 -0.0000 0.0000 79.3220 -15.5964 50.0051 -47.4155 51.8984 -24.1250 0.0000 -0.0000 -42.1084 -8.1504 1.9967 -0.2859 7.1250 -0.0000 -0.0000 14.1275 -27.8577 6.0601
-0.6677 18.1585 -0.1452 1.3095 -5.6916 1.7012 0.0000 0.0000 0.0000 -18.1648 -2.6112 0.3792 0.3921 4.0210 11.1358 0.0177 14.1288 -20.2712 0.7071 -5.3743 -14.9793 0.0000 0.0000 0.0000 20.2620 4.9097 -4.2579 -0.9214 -6.1156 17.1202 0.0305 -13.5547 -18.9014 -0.2060 2.9220 -8.0617 -0.7572 2.5644 2.5254 -0.3828 3.4183 3.9609 0.0235 1.6921 2.6329 -5.4702 -6.3109 -5.2485 4.5051 -8.9313 21.0641 1.6313 -4.2886 7.7972 -0.0000 -0.0000 0.0000 -74.9666 15.0800 57.8529 57.0703 -55.4773 -31.9151 -0.0000 0.0000 -37.0456 9.9968 37.2118 6.0848 -7.1250 0.0000 -0.0000 -31.0933 65.0261 -15.7553 -0.0000 -0.0000 0.0000 79.3441 -15.6012 49.9712 -47.3738 51.8798 -24.0921 0.0000 -0.0000 -42.0315 -8.2117 1.8860 -0.2721 7.1250 -0.0000 -0.0000 14.0953 -27.9666 6.0080
-0.6678 18.1578 -0.1436 1.2873 -5.7135 1.7160 0.0000 0.0000 0.0000 -18.1410 -2.6242 0.3546 0.3947 4.0341 11.1725 0.0159 14.1440 -20.2724 0.7052 -5.3673 -14.9593 0.0000 0.0000 0.0000 20.2926 4.9177 -4.2709 -0.9214 -6.1157 17.1206 0.0313 -13.5488 -18.8833 -0.2063 2.9245 -8.0686 -0.7455 2.5694 2.5183 -0.3702 3.4249 3.9644 0.0303 1.6954 2.6404 -5.5093 -6.2912 -5.2052 4.5707 -8.9099 20.9730 1.6633 -4.2775 7.7628 0.0000 -0.0000 0.0000 -75.0118 15.0508 57.8075 57.0145 -55.4604 -31.8691 -0.0000 0.0000 -37.0601 9.8283 36.6824 5.9084 -7.1250 0.0000 -0.0000 -30.6125 64.5374 -15.1460 0.0000 -0.0000 0.0000 79.3614 -15.5729 49.9397 -47.3709 51.8785 -24.0899 0.0000 -0.0000 -42.0114 -8.3175 1.7995 -0.2630 7.1250 -0.0000 -0.0000 14.0263 -28.0523 5.9475
-0.6659 18.1577 -0.1394 1.2593 -5.7138 1.7125 0.0000 0.0000 0.0000 -18.1200 -2.6641 0.3449 0.4003 4.0620 11.2513 0.0401 14.0663 -20.4318 0.6693 -5.2317 -14.5707 0.0000 0.0000 0.0000 20.3159 4.8992 -4.2378 -0.9193 -6.1089 17.1007 0.0139 -13.4681 -18.9775 -0.1932 2.8307 -7.8078 -0.7169 2.5543 2.4939 -0.3494 3.4050 3.9792 0.0375 1.6858 2.6697 -5.5446 -6.2825 -5.2152 4.5797 -8.8945 20.9624 1.6731 -4.2720 7.7623 0.0000 0.0000 0.0000 -75.1167 15.0765 57.6653 57.0112 -55.4594 -31.8664 -0.0000 0.0000 -37.0185 10.3393 35.9535 6.1139 -7.1250 0.0000 -0.0000 -29.2055 64.0606 -14.0691 0.0000 0.0000 0.0000 79.3666 -15.5635 49.9173 -47.3541 51.8710 -24.0767 0.0000 -0.0000 -41.9411 -8.3263 1.8105 -0.2649 7.1250 -0.0000 -0.0000 14.0182 -28.0417 5.9475
-0.6649 18.1583 -0.1373 1.2331 -5.7165 1.7137 0.0000 0.0000 0.0000 -18.0990 -2.7004 0.3247 0.4049 4.0849 11.3155 0.0558 14.0276 -20.5502 0.6491 -5.1539 -14.3479 0.0000 0.0000 0.0000 20.3433 4.9137 -4.2076 -0.9176 -6.1033 17.0843 0.0130 -13.4713 -18.9926 -0.1957 2.8491 -7.8588 -0.6849 2.5553 2.4936 -0.3382 3.4064 3.9900 0.0314 1.6872 2.6822 -5.5456 -6.2815 -5.2211 4.5834 -8.8923 20.9413 1.6747 -4.2707 7.7565 0.0000 -0.0000 0.0000 -75.1903 15.0810 57.5582 56.9894 -55.4528 -31.8485 -0.0000 0.0000 -36.9714 11.2915 34.9316 6.5222 -7.1250 0.0000 -0.0000 -27.0532 63.4341 -12.5593 0.0000 -0.0000 0.0000 79.3762 -15.5501 49.8732 -47.3660 51.8763 -24.0861 0.0000 -0.0000 -41.9422 -8.3515 1.8604 -0.2731 7.1250 -0.0000 -0.0000 13.9929 -27.9929 5.9528
-0.6646 18.1580 -0.1356 1.2081 -5.7183 1.7290 0.0000 0.0000 0.0000 -18.0743 -2.7112 0.3034 0.4058 4.0894 11.3284 0.0440 14.0818 -20.4952 0.6748 -5.2527 -14.6308 0.0000 0.0000 0.0000 20.3713 4.9348 -4.2167 -0.9175 -6.1031 17.0839 0.0206 -13.5246 -18.9778 -0.1983 2.8676 -7.9104 -0.6405 2.5564 2.4921 -0.3470 3.4083 3.9893 -0.0021 1.6895 2.6854 -5.5217 -6.2698 -5.1953 4.5837 -8.8790 20.9152 1.6733 -4.2633 7.7413 0.0000 -0.0000 0.0000 -75.2084 15.0776 57.5059 56.9051 -55.4272 -31.7790 -0.0000 0.0000 -36.9325 11.2969 34.8466 6.5116 -7.1250 0.0000 -0.0000 -26.9563 63.3613 -12.4651 0.0000 -0.0000 0.0000 79.4472 -15.5267 49.8144 -47.3385 51.8640 -24.0644 0.0000 -0.0000 -41.9499 -8.4799 1.9963 -0.2976 7.1250 -0.0000 -0.0000 13.8789 -27.8605 5.9464
-0.6639 18.1574 -0.1342 1.2622 -5.7129 1.7631 0.0000 0.0000 0.0000 -18.1431 -2.7546 0.2752 0.4064 4.0926 11.3373 0.0395 14.1317 -20.5148 0.7038 -5.3623 -14.9450 0.0000 0.0000 0.0000 20.3030 4.9024 -4.2850 -0.9178 -6.1040 17.0865 0.0346 -13.5571 -18.8557 -0.2118 2.9632 -8.1764 -0.6921 2.5517 2.4737 -0.3665 3.4022 3.9740 0.0071 1.6853 2.6782 -5.3255 -6.2642 -5.1092 4.3962 -8.8553 20.8069 1.5865 -4.2560 7.6706 -0.0000 0.0000 0.0000 -75.2328 15.1193 57.4420 56.8802 -55.4196 -31.7585 -0.0000 0.0000 -36.8729 10.4291 35.7379 6.1360 -7.1250 0.0000 -0.0000 -28.8623 63.9008 -13.7829 -0.0000 0.0000 0.0000 79.4634 -15.5483 49.7979 -47.3676 51.8770 -24.0873 0.0000 -0.0000 -41.9734 -8.5976 2.0401 -0.3084 7.1250 -0.0000 -0.0000 13.7847 -27.8184 5.9179
